<svg width="77" height="40" viewBox="0 0 77 40" fill="none" xmlns="http://www.w3.org/2000/svg">
<g clip-path="url(#clip0)">
<path d="M0.5 21.65L9.65 30.5L18.5 21.65" stroke="#C4C4C4"/>
<path d="M9.64999 9.34998V30.65" stroke="#C4C4C4"/>
<path d="M35.3359 22.5176L35.6094 24.3926L36.0098 22.7031L38.8223 12.7812H40.4043L43.1484 22.7031L43.5391 24.4219L43.8418 22.5078L46.0488 12.7812H47.9336L44.4863 27H42.7773L39.8477 16.6387L39.623 15.5547L39.3984 16.6387L36.3613 27H34.6523L31.2148 12.7812H33.0898L35.3359 22.5176ZM48.9492 21.6191C48.9492 20.584 49.151 19.653 49.5547 18.8262C49.9648 17.9993 50.5312 17.3613 51.2539 16.9121C51.9831 16.4629 52.8132 16.2383 53.7441 16.2383C55.1829 16.2383 56.3451 16.7363 57.2305 17.7324C58.1224 18.7285 58.5684 20.0534 58.5684 21.707V21.834C58.5684 22.8626 58.3698 23.7871 57.9727 24.6074C57.582 25.4212 57.0189 26.056 56.2832 26.5117C55.554 26.9674 54.7142 27.1953 53.7637 27.1953C52.3314 27.1953 51.1693 26.6973 50.2773 25.7012C49.3919 24.7051 48.9492 23.3867 48.9492 21.7461V21.6191ZM50.7656 21.834C50.7656 23.0059 51.0358 23.9466 51.5762 24.6562C52.123 25.3659 52.8522 25.7207 53.7637 25.7207C54.6816 25.7207 55.4108 25.3626 55.9512 24.6465C56.4915 23.9238 56.7617 22.9147 56.7617 21.6191C56.7617 20.4603 56.485 19.5228 55.9316 18.8066C55.3848 18.084 54.6556 17.7227 53.7441 17.7227C52.8522 17.7227 52.1328 18.0775 51.5859 18.7871C51.0391 19.4967 50.7656 20.5124 50.7656 21.834ZM65.9414 18.0547C65.668 18.0091 65.3717 17.9863 65.0527 17.9863C63.8678 17.9863 63.0638 18.4909 62.6406 19.5V27H60.834V16.4336H62.5918L62.6211 17.6543C63.2135 16.7103 64.0534 16.2383 65.1406 16.2383C65.4922 16.2383 65.7591 16.2839 65.9414 16.375V18.0547ZM70.5605 22.1074L69.4277 23.2891V27H67.6211V12H69.4277V21.0723L70.3945 19.9102L73.6855 16.4336H75.8828L71.7715 20.8477L76.3613 27H74.2422L70.5605 22.1074Z" fill="#B3BAC5"/>
</g>
<defs>
<clipPath id="clip0">
<rect width="76" height="40" fill="white" transform="translate(0.5)"/>
</clipPath>
</defs>
</svg>
