<svg width="25" height="24" viewBox="0 0 25 24" fill="none" xmlns="http://www.w3.org/2000/svg">
<g clip-path="url(#clip0)">
<path d="M11.9642 22C16.6609 22 19.5834 18.5392 19.5834 14.0742C19.5834 12.3908 19.3092 10.8708 17.3984 10.4142C17.8634 9.14083 19.205 5.4575 19.205 4.2775C19.205 3.23833 18.58 2.3675 17.4659 2.3675C15.69 2.3675 14.0984 7.51167 13.6 8.73833C13.2142 7.625 11.4075 2 9.81502 2C8.57752 2 7.99668 2.89417 7.99668 4.01917C7.99668 5.39833 9.35752 8.9725 9.85085 10.3475C9.60085 10.2575 9.33002 10.1792 9.05418 10.1792C8.12252 10.1792 7.13168 11.3158 7.13168 12.2342C7.13168 12.5817 7.32668 13.07 7.45002 13.3942C5.98168 13.785 5.41668 14.7458 5.41668 16.195C5.41252 19.015 8.13585 22 11.9642 22ZM15.9892 6.21917C16.1492 5.73833 16.8292 3.7075 17.4659 3.7075C17.8084 3.7075 17.9 4.055 17.9 4.3325C17.9 5.07833 16.3642 9.2 16.025 10.1133L14.6717 9.87917L15.9892 6.21917ZM9.24668 3.8875V3.88667C9.24668 3.42167 9.82418 2.10167 11.0892 5.72667L12.4667 9.645C11.8459 9.59417 11.3642 9.5275 11.0584 9.7C10.6242 8.575 9.24668 5.02417 9.24668 3.8875ZM9.15502 11.5308L9.15585 11.5317C10.3217 11.5317 11.8267 15.2267 11.8267 15.7267C11.8267 15.9258 11.6317 16.1717 11.405 16.1717C10.5725 16.1717 8.34335 13.1675 8.34335 12.355C8.34668 12.0542 8.84835 11.5308 9.15502 11.5308ZM7.81502 14.5892C8.26835 14.5892 9.97585 16.945 9.97585 17.445C9.97585 17.6367 9.66918 17.7692 9.51085 17.7692C8.87002 17.7692 8.61918 17.1633 7.47752 15.7617C6.29502 16.9217 8.29335 19.1558 9.79835 19.1558C10.8367 19.1558 11.5134 18.2108 11.3109 17.515C11.4584 17.515 11.6409 17.5267 11.7767 17.4917C11.8209 18.55 12.1392 19.8117 13.4367 19.9017C13.4367 19.8667 13.5167 19.6242 13.5167 19.6125C13.5167 18.9325 13.095 18.3392 13.095 17.6475C13.095 16.5417 13.9584 15.4717 14.8342 14.8467C15.1525 14.6125 15.5392 14.4675 15.9125 14.335C16.2992 14.1908 16.7092 14.0225 17.0025 13.7333C16.9584 13.2958 16.7759 12.9092 16.33 12.9092C15.2275 12.9092 11.53 13.0658 11.53 11.3583C11.53 11.0967 11.5342 10.8467 12.2234 10.8467C13.5092 10.8467 16.7734 11.1592 17.7284 11.9833C18.4484 12.6125 18.6959 16.405 16.4942 18.8075L16.4917 18.8083C15.3334 20.0583 13.8525 20.7067 12.125 20.7067C9.76085 20.7067 7.89335 19.4333 6.99418 17.2575C6.31335 15.5625 7.14585 14.5892 7.81502 14.5892ZM12.5659 13.8858C12.9534 14.0075 13.3509 14.0433 13.7492 14.1208C13.4542 14.3317 13.1925 14.59 12.9409 14.8667C12.8292 14.535 12.6934 14.2108 12.5659 13.8858Z" fill="white"/>
</g>
<defs>
<clipPath id="clip0">
<rect width="20" height="20" fill="white" transform="translate(2.5 2)"/>
</clipPath>
</defs>
</svg>
