<svg width="25" height="24" viewBox="0 0 25 24" fill="none" xmlns="http://www.w3.org/2000/svg">
<g clip-path="url(#clip0)">
<path d="M16.1443 5.03455C12.6556 5.03455 9.78855 7.86213 9.78855 11.3794V21.3104C9.78855 21.6897 10.0994 22.0001 10.4794 22.0001H14.0718C14.4518 22.0001 14.7626 21.6897 14.7626 21.3104V11.6552C14.7626 10.8966 15.3844 10.2759 16.1443 10.2759C16.9043 10.2759 17.526 10.8966 17.526 11.6552V21.3104C17.526 21.6897 17.8369 22.0001 18.2169 22.0001H21.8093C22.1892 22.0001 22.5001 21.6897 22.5001 21.3104V11.3794C22.5001 7.89662 19.6677 5.03455 16.1443 5.03455Z" fill="white"/>
<path d="M6.78325 8.27588H3.19085C2.81088 8.27588 2.5 8.58622 2.5 8.96553V21.3104C2.5 21.6897 2.81088 22 3.19085 22H6.78325C7.16321 22 7.47409 21.6897 7.47409 21.3104V8.96553C7.47409 8.58622 7.16321 8.27588 6.78325 8.27588Z" fill="white"/>
<path d="M4.98705 2C3.60535 2 2.5 3.10345 2.5 4.48276C2.5 5.86207 3.60535 6.96552 4.98705 6.96552C6.36874 6.96552 7.47409 5.86207 7.47409 4.48276C7.47409 3.10345 6.36874 2 4.98705 2Z" fill="white"/>
</g>
<defs>
<clipPath id="clip0">
<rect width="20" height="20" fill="white" transform="translate(2.5 2)"/>
</clipPath>
</defs>
</svg>
