<svg width="25" height="24" viewBox="0 0 25 24" fill="none" xmlns="http://www.w3.org/2000/svg">
<path d="M20.9042 5.88042L22.5 4.33768V4H16.9717L13.0317 13.9099L8.54917 4H2.7525V4.33768L4.61667 6.60547C4.79833 6.77305 4.89333 7.01811 4.86917 7.26484V16.1768C4.92667 16.4977 4.82333 16.8278 4.6 17.0611L2.5 19.6328V19.9663H8.45417V19.6286L6.35417 17.0611C6.12667 16.8269 6.01917 16.5027 6.065 16.1768V8.46821L11.2917 19.9705H11.8992L16.3933 8.46821V17.6312C16.3933 17.8728 16.3933 17.9225 16.2367 18.0808L14.62 19.6615V20H22.4633V19.6623L20.905 18.1204C20.7683 18.016 20.6975 17.8408 20.7267 17.6707V6.33011C20.6975 6.15916 20.7675 5.984 20.9042 5.88042Z" fill="white"/>
</svg>
