<svg width="25" height="24" viewBox="0 0 25 24" fill="none" xmlns="http://www.w3.org/2000/svg">
<g clip-path="url(#clip0)">
<g clip-path="url(#clip1)">
<path d="M21.4992 9.46114C21.4992 8.32124 21.1332 7.25043 20.4345 6.31779C20.7006 5.41969 20.7672 4.27979 20.7006 2.96718C20.6674 2.41451 20.2348 2 19.7025 2C19.4031 2 16.8744 2.03454 15.4104 3.38169C14.1461 3.1399 12.8153 3.1399 11.5177 3.38169C10.087 2.03454 7.55832 2 7.2256 2C6.69325 2 6.26072 2.41451 6.22745 2.96718C6.12763 4.27979 6.22745 5.41969 6.49362 6.31779C5.79492 7.28497 5.42893 8.35579 5.42893 9.46114C5.42893 11.8791 7.2256 14.0553 9.95388 15.0915C9.85407 15.2988 9.78752 15.5406 9.72098 15.7824C6.82634 15.4715 5.4622 12.7427 5.39566 12.639C5.16275 12.1209 4.56386 11.9136 4.06479 12.19C3.56571 12.4318 3.36608 13.0535 3.63226 13.5717C3.6988 13.7444 5.52874 17.4404 9.55462 17.8549V20.9637C9.55462 21.5509 9.98715 22 10.5528 22H16.3753C16.9409 22 17.3735 21.5509 17.3735 20.9637V16.8532C17.3735 16.2314 17.2404 15.6442 17.0075 15.1261C19.7025 14.0553 21.4992 11.9136 21.4992 9.46114Z" fill="white"/>
</g>
</g>
<defs>
<clipPath id="clip0">
<rect width="18" height="20" fill="white" transform="translate(3.5 2)"/>
</clipPath>
<clipPath id="clip1">
<rect width="18" height="20" fill="white" transform="translate(3.5 2)"/>
</clipPath>
</defs>
</svg>
