<svg width="127" height="36" viewBox="0 0 127 36" fill="none" xmlns="http://www.w3.org/2000/svg">
<path d="M20.6013 21.0205H15.6443L14.6071 24H12.2956L17.1296 11.2031H19.1247L23.9675 24H21.6472L20.6013 21.0205ZM16.2683 19.2275H19.9773L18.1228 13.9189L16.2683 19.2275ZM28.0319 24H25.8962V10.5H28.0319V24ZM35.0934 24.1758C33.7399 24.1758 32.6412 23.751 31.7975 22.9014C30.9596 22.0459 30.5407 20.9092 30.5407 19.4912V19.2275C30.5407 18.2783 30.7223 17.4316 31.0856 16.6875C31.4547 15.9375 31.9704 15.3545 32.6325 14.9385C33.2946 14.5225 34.0329 14.3145 34.8473 14.3145C36.1422 14.3145 37.1412 14.7275 37.8444 15.5537C38.5534 16.3799 38.9079 17.5488 38.9079 19.0605V19.9219H32.694C32.7584 20.707 33.0192 21.3281 33.4762 21.7852C33.9391 22.2422 34.5192 22.4707 35.2164 22.4707C36.195 22.4707 36.9918 22.0752 37.6071 21.2842L38.7584 22.3828C38.3776 22.9512 37.8678 23.3936 37.2291 23.71C36.5963 24.0205 35.8844 24.1758 35.0934 24.1758ZM34.8385 16.0283C34.2526 16.0283 33.778 16.2334 33.4147 16.6436C33.0573 17.0537 32.8287 17.625 32.7291 18.3574H36.7985V18.1992C36.7516 17.4844 36.5612 16.9453 36.2272 16.582C35.8932 16.2129 35.4303 16.0283 34.8385 16.0283ZM41.8648 24V16.0723H40.4146V14.4902H41.8648V13.6201C41.8648 12.5654 42.1578 11.751 42.7437 11.1768C43.3297 10.6025 44.15 10.3154 45.2047 10.3154C45.5797 10.3154 45.9781 10.3682 46.4 10.4736L46.3473 12.1436C46.1129 12.0967 45.8404 12.0732 45.5299 12.0732C44.5104 12.0732 44.0006 12.5977 44.0006 13.6465V14.4902H45.9342V16.0723H44.0006V24H41.8648ZM63.0718 22.3389C62.6089 22.9424 61.9673 23.3994 61.147 23.71C60.3267 24.0205 59.395 24.1758 58.3521 24.1758C57.2798 24.1758 56.3306 23.9326 55.5044 23.4463C54.6782 22.96 54.0396 22.2656 53.5884 21.3633C53.1431 20.4551 52.9116 19.3975 52.8941 18.1904V17.1885C52.8941 15.2549 53.357 13.7461 54.2827 12.6621C55.2085 11.5723 56.5005 11.0273 58.1587 11.0273C59.5825 11.0273 60.7134 11.3789 61.5513 12.082C62.3892 12.7852 62.8931 13.7988 63.063 15.123H60.8833C60.6372 13.582 59.7437 12.8115 58.2027 12.8115C57.2066 12.8115 56.4478 13.1719 55.9263 13.8926C55.4107 14.6074 55.1441 15.6592 55.1265 17.0479V18.0322C55.1265 19.415 55.4165 20.4902 55.9966 21.2578C56.5825 22.0195 57.3941 22.4004 58.4312 22.4004C59.5679 22.4004 60.3765 22.1426 60.857 21.627V19.1221H58.2202V17.4346H63.0718V22.3389ZM71.5307 24C71.437 23.8184 71.355 23.5225 71.2846 23.1123C70.605 23.8213 69.7729 24.1758 68.7886 24.1758C67.8335 24.1758 67.0542 23.9033 66.4507 23.3584C65.8471 22.8135 65.5454 22.1396 65.5454 21.3369C65.5454 20.3232 65.9204 19.5469 66.6704 19.0078C67.4263 18.4629 68.5044 18.1904 69.9048 18.1904H71.2143V17.5664C71.2143 17.0742 71.0766 16.6816 70.8013 16.3887C70.5259 16.0898 70.1069 15.9404 69.5444 15.9404C69.0581 15.9404 68.6596 16.0635 68.3491 16.3096C68.0386 16.5498 67.8833 16.8574 67.8833 17.2324H65.7475C65.7475 16.7109 65.9204 16.2246 66.2661 15.7734C66.6118 15.3164 67.0805 14.959 67.6723 14.7012C68.27 14.4434 68.935 14.3145 69.6675 14.3145C70.7807 14.3145 71.6684 14.5957 72.3305 15.1582C72.9927 15.7148 73.3325 16.5 73.3501 17.5137V21.8027C73.3501 22.6582 73.4702 23.3408 73.7104 23.8506V24H71.5307ZM69.1841 22.4619C69.6059 22.4619 70.0014 22.3594 70.3706 22.1543C70.7456 21.9492 71.0268 21.6738 71.2143 21.3281V19.5352H70.063C69.272 19.5352 68.6772 19.6729 68.2788 19.9482C67.8804 20.2236 67.6811 20.6133 67.6811 21.1172C67.6811 21.5273 67.8159 21.8555 68.0854 22.1016C68.3608 22.3418 68.727 22.4619 69.1841 22.4619ZM81.1059 16.4414C80.8246 16.3945 80.5346 16.3711 80.2358 16.3711C79.2573 16.3711 78.5981 16.7461 78.2582 17.4961V24H76.1225V14.4902H78.1616L78.2143 15.5537C78.7299 14.7275 79.4448 14.3145 80.3588 14.3145C80.6635 14.3145 80.9155 14.3555 81.1147 14.4375L81.1059 16.4414ZM87.974 16.4414C87.6928 16.3945 87.4027 16.3711 87.1039 16.3711C86.1254 16.3711 85.4662 16.7461 85.1264 17.4961V24H82.9906V14.4902H85.0297L85.0824 15.5537C85.598 14.7275 86.3129 14.3145 87.227 14.3145C87.5316 14.3145 87.7836 14.3555 87.9828 14.4375L87.974 16.4414ZM92.1351 24H89.9994V14.4902H92.1351V24ZM89.8675 12.0205C89.8675 11.6924 89.9701 11.4199 90.1752 11.2031C90.3861 10.9863 90.6849 10.8779 91.0716 10.8779C91.4584 10.8779 91.7572 10.9863 91.9681 11.2031C92.1791 11.4199 92.2845 11.6924 92.2845 12.0205C92.2845 12.3428 92.1791 12.6123 91.9681 12.8291C91.7572 13.04 91.4584 13.1455 91.0716 13.1455C90.6849 13.1455 90.3861 13.04 90.1752 12.8291C89.9701 12.6123 89.8675 12.3428 89.8675 12.0205ZM94.6087 19.1748C94.6087 17.71 94.9486 16.5352 95.6282 15.6504C96.3079 14.7598 97.2191 14.3145 98.3616 14.3145C99.3695 14.3145 100.184 14.666 100.805 15.3691V10.5H102.941V24H101.007L100.902 23.0156C100.263 23.7891 99.4105 24.1758 98.3441 24.1758C97.2308 24.1758 96.3284 23.7275 95.637 22.8311C94.9515 21.9346 94.6087 20.7158 94.6087 19.1748ZM96.7445 19.3594C96.7445 20.3262 96.929 21.082 97.2982 21.627C97.6732 22.166 98.2034 22.4355 98.889 22.4355C99.762 22.4355 100.401 22.0459 100.805 21.2666V17.2061C100.412 16.4443 99.7796 16.0635 98.9066 16.0635C98.2152 16.0635 97.682 16.3389 97.307 16.8896C96.932 17.4346 96.7445 18.2578 96.7445 19.3594ZM105.309 19.1572C105.309 18.2256 105.493 17.3877 105.863 16.6436C106.232 15.8936 106.75 15.3193 107.418 14.9209C108.086 14.5166 108.854 14.3145 109.721 14.3145C111.004 14.3145 112.044 14.7275 112.841 15.5537C113.644 16.3799 114.077 17.4756 114.142 18.8408L114.151 19.3418C114.151 20.2793 113.969 21.1172 113.606 21.8555C113.248 22.5938 112.733 23.165 112.059 23.5693C111.391 23.9736 110.617 24.1758 109.739 24.1758C108.397 24.1758 107.322 23.7305 106.513 22.8398C105.71 21.9434 105.309 20.751 105.309 19.2627V19.1572ZM107.445 19.3418C107.445 20.3203 107.647 21.0879 108.051 21.6445C108.455 22.1953 109.018 22.4707 109.739 22.4707C110.459 22.4707 111.019 22.1895 111.417 21.627C111.822 21.0645 112.024 20.2412 112.024 19.1572C112.024 18.1963 111.816 17.4346 111.4 16.8721C110.99 16.3096 110.43 16.0283 109.721 16.0283C109.024 16.0283 108.47 16.3066 108.06 16.8633C107.65 17.4141 107.445 18.2402 107.445 19.3418Z" fill="white"/>
</svg>
